<svg xmlns="http://www.w3.org/2000/svg" version="1.1" xmlns:xlink="http://www.w3.org/1999/xlink" xmlns:svgjs="http://svgjs.dev/svgjs" viewBox="0 0 1920 1080"><rect width="1920" height="1080" fill="#2b2b2b"></rect><g transform="matrix(0.8131727983645296,0.8131727983645295,-0.8131727983645295,0.8131727983645296,612.9673682509576,-655.819983963203)"><path d="M0,-1080C1.0122277474123298,-1003.0778538234687,11.259207581871689,-812.9057874427923,6.073366484473979,-618.4671229408121C0.8875253870762689,-424.028458438832,-37.582410636227074,-116.47349680346039,-31.115046584386263,86.63198701188097C-24.647682532545456,289.7374708272223,49.218593772530525,447.0271763474202,44.87755079551883,600.1657799512361C40.53650781850713,753.304383555052,-46.711773576111874,828.7216679072004,-57.16130444645646,1005.4636086347765C-67.61083531680106,1182.2055493623527,-27.346518500958112,1468.194692422489,-17.819634426548703,1660.617424316693C-8.292750352139292,1853.0401562108968,-2.9699390710914506,2076.769570719449,0,2160L 1920 2160 L 1920 -1080 Z" fill="url(&quot;#SvgjsLinearGradient1099&quot;)"></path><path d="M384,-1080C376.92299818259005,-976.7840089575722,353.62124665814304,-685.4178099990255,341.53798909554024,-460.70405374543304C329.45473153293744,-235.99029749184058,306.28494522141517,61.43120079684263,311.50045462438334,268.2825375215547C316.7159640273515,475.1338742462667,359.7727870952262,584.9612770846137,372.8310455133492,780.4039666028392C385.88930393147217,975.8466561210647,387.9885127186794,1211.0060023980477,389.85000513312116,1440.9386746309078C391.71149754756294,1670.871346863768,384.9750008555202,2040.156445771818,384,2160L 1920 2160 L 1920 -1080 Z" fill="url(&quot;#SvgjsLinearGradient1100&quot;)"></path><path d="M768,-1080C759.4385552844371,-992.8347987005212,715.6766736863235,-732.67705584928,716.6313317066225,-557.0087922031274C717.5859897269215,-381.34052855697485,754.2377789572773,-219.85170781097582,773.7279481217944,-25.990418123084694C793.2181172863114,167.8708715648064,829.1786887061361,427.0261852850148,833.572346693725,606.1589459242193C837.9660046813138,785.2917065634239,817.4677003089316,865.0427684565293,800.0898960473276,1048.8061457121426C782.7120917857235,1232.5695229677558,734.6538371319881,1523.5402337432556,729.3055211241002,1708.7392094578986C723.9572051162123,1893.9381851725416,761.55092018735,2084.789868242983,768,2160L 1920 2160 L 1920 -1080 Z" fill="url(&quot;#SvgjsLinearGradient1101&quot;)"></path><path d="M1152,-1080C1167.7697504392454,-1007.73242747199,1250.0958499399635,-784.804273860887,1246.6185026354722,-646.3945648319402C1243.1411553309808,-507.9848558029935,1158.1534794296952,-411.23935358878566,1131.1359161730516,-249.54174582631947C1104.118352916408,-87.84413806385328,1067.5408399855469,142.0475486887975,1084.5131230956106,323.79108174285693C1101.4854062056743,505.53461479691634,1207.5071322033873,697.1438858342078,1232.9696148334333,840.9194524980371C1258.4320974634793,984.6950191618664,1253.8184111310688,1043.534254376424,1237.2880188758872,1186.4444817258327C1220.7576266207057,1329.3547090752413,1148.001931114992,1536.1215635487936,1133.7872613023442,1698.3808165944881C1119.5725914896964,1860.6400696401827,1148.9645435503908,2083.063469432415,1152,2160L 1920 2160 L 1920 -1080 Z" fill="url(&quot;#SvgjsLinearGradient1102&quot;)"></path><path d="M1536,-1080C1534.2487669546458,-939.6425477594998,1534.7516211197662,-517.8471102111508,1525.4926017278754,-237.8552865569989C1516.2335823359845,42.136537097153024,1469.0410559085979,319.49896875325396,1480.445883648655,599.9509419249114C1491.850711388712,880.4029150965688,1584.6625487763272,1184.8483761270975,1593.921568168218,1444.8565524729456C1603.180587560109,1704.8647288187938,1545.653594694703,2040.8094254121577,1536,2160L 1920 2160 L 1920 -1080 Z" fill="url(&quot;#SvgjsLinearGradient1103&quot;)"></path></g><defs><linearGradient x1="0.1" y1="0" x2="0" y2="1" id="SvgjsLinearGradient1099"><stop stop-color="#2b2b2b" offset="0"></stop><stop stop-color="#2b2b2b" offset="0"></stop></linearGradient><linearGradient x1="0.1" y1="0" x2="0" y2="1" id="SvgjsLinearGradient1100"><stop stop-color="#555555" offset="0"></stop><stop stop-color="#555555" offset="0.2"></stop></linearGradient><linearGradient x1="0.1" y1="0" x2="0" y2="1" id="SvgjsLinearGradient1101"><stop stop-color="#808080" offset="0"></stop><stop stop-color="#808080" offset="0.4"></stop></linearGradient><linearGradient x1="0.1" y1="0" x2="0" y2="1" id="SvgjsLinearGradient1102"><stop stop-color="#aaaaaa" offset="0"></stop><stop stop-color="#aaaaaa" offset="0.6"></stop></linearGradient><linearGradient x1="0.1" y1="0" x2="0" y2="1" id="SvgjsLinearGradient1103"><stop stop-color="#d5d5d5" offset="0"></stop><stop stop-color="#d5d5d5" offset="0.8"></stop></linearGradient></defs></svg>